<?xml version="1.0" standalone="no"?>
<!DOCTYPE svg PUBLIC "-//W3C//DTD SVG 20010904//EN"
 "http://www.w3.org/TR/2001/REC-SVG-20010904/DTD/svg10.dtd">
<svg version="1.0" xmlns="http://www.w3.org/2000/svg"
 width="480.000000pt" height="480.000000pt" viewBox="0 0 480.000000 480.000000"
 preserveAspectRatio="xMidYMid meet">
<metadata>
Created by potrace 1.11, written by Peter Selinger 2001-2013
</metadata>
<g transform="translate(0.000000,480.000000) scale(0.100000,-0.100000)"
fill="#000000" stroke="none">
<path d="M2272 4481 c-46 -12 -111 -60 -136 -101 -38 -61 -45 -87 -42 -152 3
-77 37 -142 99 -188 53 -39 86 -47 232 -54 66 -3 129 -8 140 -10 11 -2 40 -7
65 -11 568 -93 1061 -463 1313 -985 104 -216 160 -427 172 -650 11 -200 22
-240 82 -298 129 -125 333 -83 404 82 20 48 21 61 15 209 -3 87 -8 162 -10
165 -2 4 -7 29 -10 55 -63 466 -296 928 -646 1277 -177 177 -310 275 -544 403
-164 90 -436 188 -616 222 -17 3 -137 22 -190 30 -68 10 -295 14 -328 6z"/>
<path d="M2281 3504 c-111 -25 -191 -129 -191 -249 0 -83 74 -187 158 -222 18
-8 64 -16 100 -18 234 -15 396 -82 545 -224 155 -147 233 -316 252 -546 8
-101 14 -125 42 -170 112 -180 388 -141 449 64 20 67 8 236 -27 376 -61 250
-175 447 -366 632 -191 184 -404 294 -678 349 -28 5 -120 15 -181 18 -27 1
-74 -3 -103 -10z"/>
<path d="M711 2594 c-277 -57 -496 -259 -577 -530 -25 -84 -24 -79 -28 -189
-7 -171 32 -311 122 -449 32 -49 196 -218 569 -589 288 -287 534 -527 546
-534 39 -22 96 -16 136 14 20 15 268 259 552 543 565 563 577 578 633 750 110
334 -28 708 -328 889 -274 165 -625 142 -872 -58 l-61 -49 -44 35 c-192 154
-422 213 -648 167z"/>
</g>
</svg>
