<svg xmlns="http://www.w3.org/2000/svg" width="100" height="140" viewBox="0 0 100 140">
  <path fill-rule="evenodd" d="M79.9509091,119.685818 L0.162545455,119.685818 C0.162545455,130.702182 9.09309091,139.633091 20.1098182,139.633091 L79.9509091,139.633091 C90.9672727,139.633091 99.8981818,130.702182 99.8981818,119.685818 L99.8981818,37.7745455 C99.8981818,37.3734545 99.5723636,37.048 99.1712727,37.048 L80.6774545,37.048 C80.2763636,37.048 79.9509091,37.3734545 79.9509091,37.7745455 L79.9509091,119.685818 Z M79.9509091,0.00363636364 C90.9672727,0.00363636364 99.8981818,8.93418182 99.8981818,19.9505455 L20.1098182,19.9505455 L20.1098182,101.861818 C20.1098182,102.262909 19.7843636,102.588364 19.3829091,102.588364 L0.889090909,102.588364 C0.488,102.588364 0.162545455,102.262909 0.162545455,101.861818 L0.162545455,19.9505455 C0.162545455,8.93418182 9.09309091,0.00363636364 20.1098182,0.00363636364 L79.9509091,0.00363636364 Z"/>
</svg>
