<?xml version="1.0" encoding="UTF-8"?>
<svg preserveAspectRatio="none" width="46px" height="43px" viewBox="0 0 46 43" version="1.1" xmlns="http://www.w3.org/2000/svg" xmlns:xlink="http://www.w3.org/1999/xlink">
    <defs></defs>
    <g id="Page-1" stroke="none" stroke-width="1" fill="none" fill-rule="evenodd">
        <g id="heart-wifi" fill-rule="nonzero">
            <g id="Group">
                <path d="M13.02,21.611 C10.035,18.65 5.215,18.655 2.236,21.632 C-0.744,24.612 -0.744,29.452 2.236,32.437 C2.382,32.582 9.462,39.626 12.069,42.223 C12.595,42.745 13.444,42.745 13.97,42.223 C16.578,39.628 23.659,32.579 23.803,32.437 C26.784,29.453 26.784,24.614 23.803,21.632 C20.827,18.655 16.004,18.65 13.02,21.611 Z" id="Shape" fill="#85144B"></path>
                <path d="M22.398,0.605 C21.017,0.605 19.898,1.724 19.898,3.105 C19.898,4.486 21.017,5.605 22.398,5.605 C32.225,5.605 40.22,13.6 40.22,23.427 C40.22,24.808 41.338,25.927 42.72,25.927 C44.101,25.927 45.22,24.808 45.22,23.427 C45.222,10.843 34.983,0.605 22.398,0.605 Z" id="Shape" fill="#85144B"></path>
                <path d="M22.398,10.354 C21.017,10.354 19.898,11.473 19.898,12.854 C19.898,14.235 21.017,15.354 22.398,15.354 C26.85,15.354 30.472,18.976 30.472,23.428 C30.472,24.809 31.59,25.928 32.972,25.928 C34.353,25.928 35.472,24.809 35.472,23.428 C35.474,16.218 29.607,10.354 22.398,10.354 Z" id="Shape" fill="#85144B"></path>
            </g>
        </g>
    </g>
</svg>